<svg width="8" height="8" viewBox="0 0 8 8" fill="none" xmlns="http://www.w3.org/2000/svg">
<g clip-path="url(#clip0_0_5)">
<path d="M4.20668 7.62772C2.12518 7.62772 0.431641 5.93418 0.431641 3.85268C0.431641 1.77118 2.12518 0.0776367 4.20668 0.0776367C6.28819 0.0776367 7.98173 1.77118 7.98173 3.85268C7.98173 5.93418 6.28819 7.62772 4.20668 7.62772ZM4.20668 0.326732C2.26249 0.326732 0.680736 1.90849 0.680736 3.85268C0.680736 5.79687 2.26249 7.37863 4.20668 7.37863C6.15087 7.37863 7.73263 5.79687 7.73263 3.85268C7.73263 1.90849 6.15087 0.326732 4.20668 0.326732Z" fill="#1D1D1D"/>
<path d="M3.31554 6.73659C1.72538 6.73659 0.431641 5.44285 0.431641 3.85268C0.431641 2.26252 1.72538 0.968781 3.31554 0.968781C4.90571 0.968781 6.19945 2.26252 6.19945 3.85268C6.19945 5.44285 4.90571 6.73659 3.31554 6.73659ZM3.31554 1.21788C1.86269 1.21788 0.680736 2.39983 0.680736 3.85268C0.680736 5.30553 1.86269 6.48749 3.31554 6.48749C4.76839 6.48749 5.95035 5.30553 5.95035 3.85268C5.95035 2.39983 4.76839 1.21788 3.31554 1.21788Z" fill="#1D1D1D"/>
<path d="M1.85522 5.27658C1.07026 5.27658 0.431641 4.63765 0.431641 3.85269C0.431641 3.06773 1.07026 2.42911 1.85522 2.42911C2.64018 2.42911 3.2788 3.06773 3.2788 3.85269C3.2788 4.63765 2.64018 5.27627 1.85522 5.27627V5.27658ZM1.85522 2.6782C1.20757 2.6782 0.680736 3.20504 0.680736 3.85269C0.680736 4.50034 1.20757 5.02717 1.85522 5.02717C2.50287 5.02717 3.02971 4.50034 3.02971 3.85269C3.02971 3.20504 2.50287 2.6782 1.85522 2.6782Z" fill="#1D1D1D"/>
</g>
<defs>
<clipPath id="clip0_0_5">
<rect width="7.55009" height="7.55009" fill="white" transform="translate(0.431641 0.0776367)"/>
</clipPath>
</defs>
</svg>
