<svg width="33" height="32" viewBox="0 0 33 32" fill="none" xmlns="http://www.w3.org/2000/svg">
<g clip-path="url(#clip0_0_96)">
<path fill-rule="evenodd" clip-rule="evenodd" d="M32.0508 16C32.0508 24.8366 24.8873 32 16.0508 32C7.21423 32 0.0507812 24.8366 0.0507812 16C0.0507812 7.16344 7.21423 0 16.0508 0C24.8873 0 32.0508 7.16344 32.0508 16ZM16.6241 11.8119C15.0679 12.4592 11.9576 13.7989 7.2933 15.8311C6.53589 16.1323 6.13912 16.427 6.103 16.7151C6.04196 17.202 6.65173 17.3937 7.48208 17.6548C7.59503 17.6903 7.71205 17.7271 7.83203 17.7661C8.64896 18.0317 9.74788 18.3424 10.3192 18.3547C10.8374 18.3659 11.4158 18.1523 12.0543 17.7138C16.4123 14.772 18.662 13.2851 18.8032 13.253C18.9028 13.2304 19.0409 13.202 19.1345 13.2851C19.228 13.3683 19.2188 13.5258 19.2089 13.568C19.1485 13.8255 16.7549 16.0508 15.5163 17.2024C15.1301 17.5614 14.8562 17.816 14.8002 17.8742C14.6748 18.0045 14.5469 18.1277 14.4241 18.2461C13.6651 18.9778 13.096 19.5264 14.4556 20.4224C15.109 20.8529 15.6318 21.209 16.1534 21.5642C16.723 21.9521 17.2912 22.339 18.0263 22.8209C18.2135 22.9437 18.3924 23.0712 18.5666 23.1954C19.2295 23.668 19.8251 24.0926 20.5609 24.0248C20.9884 23.9855 21.4301 23.5835 21.6543 22.3845C22.1844 19.5509 23.2263 13.4113 23.4671 10.8813C23.4882 10.6596 23.4616 10.376 23.4403 10.2514C23.419 10.1269 23.3745 9.94948 23.2126 9.81813C23.0209 9.66258 22.725 9.62978 22.5926 9.63211C21.9908 9.64271 21.0675 9.96376 16.6241 11.8119Z" fill="white"/>
</g>
<defs>
<clipPath id="clip0_0_96">
<rect width="32" height="32" fill="white" transform="translate(0.0507812)"/>
</clipPath>
</defs>
</svg>
