<svg width="33" height="32" viewBox="0 0 33 32" fill="none" xmlns="http://www.w3.org/2000/svg">
<g clip-path="url(#clip0_0_94)">
<path d="M10.1177 29C22.1902 29 28.7952 18.9957 28.7952 10.3225C28.7952 10.0413 28.7889 9.75379 28.7764 9.47254C30.0613 8.54334 31.1701 7.3924 32.0508 6.07379C30.8541 6.60619 29.5836 6.9539 28.2827 7.10504C29.6525 6.28394 30.6782 4.99402 31.1695 3.47442C29.8809 4.23814 28.4715 4.77688 27.002 5.06754C26.0119 4.01548 24.7028 3.31888 23.277 3.08546C21.8513 2.85204 20.3884 3.09479 19.1144 3.77619C17.8405 4.45758 16.8265 5.53967 16.2292 6.85514C15.632 8.17062 15.4847 9.64621 15.8102 11.0538C13.2008 10.9228 10.648 10.245 8.31742 9.06419C5.98682 7.88339 3.93037 6.22598 2.28141 4.19942C1.44331 5.64439 1.18686 7.35425 1.56416 8.98152C1.94145 10.6088 2.9242 12.0313 4.31266 12.96C3.27029 12.9269 2.25075 12.6463 1.33828 12.1413V12.2225C1.33735 13.7389 1.86158 15.2088 2.82186 16.3824C3.78214 17.556 5.11921 18.3608 6.60578 18.66C5.64019 18.9242 4.62676 18.9627 3.64391 18.7725C4.06339 20.0766 4.87955 21.2172 5.97848 22.0352C7.07741 22.8531 8.40428 23.3075 9.77391 23.335C7.44868 25.1615 4.57635 26.1522 1.61953 26.1475C1.09516 26.1467 0.571313 26.1146 0.0507812 26.0513C3.05459 27.9784 6.54882 29.0019 10.1177 29Z" fill="white"/>
</g>
<defs>
<clipPath id="clip0_0_94">
<rect width="32" height="32" fill="white" transform="translate(0.0507812)"/>
</clipPath>
</defs>
</svg>
