<svg width="1728" height="1117" viewBox="0 0 1728 1117" fill="none" xmlns="http://www.w3.org/2000/svg">
<g filter="url(#filter0_d_0_100)">
<path d="M625.69 570.028L625.7 570.036L625.71 570.044L630.555 573.919L630.583 573.942L642.042 583.568L642.051 583.575L690.008 623.287C690.061 623.685 690.257 624.068 690.594 624.351L877.575 781.412L877.596 781.43L970.072 862.099C970.159 862.262 970.277 862.413 970.427 862.542L971.408 861.408L970.427 862.543L1464.81 1290.03C1476.35 1300.01 1491.09 1305.5 1506.35 1305.5H1808.79C1826.3 1305.5 1840.5 1291.3 1840.5 1273.79C1840.5 1264.32 1836.26 1255.34 1828.94 1249.31L1124.21 669.337C1094.86 645.184 1094.79 600.268 1124.07 576.025L1789.87 24.6932C1797.15 18.6626 1801.37 9.6993 1801.37 0.243799C1801.37 -17.2878 1787.16 -31.5 1769.62 -31.5H1474.3C1459.07 -31.5 1444.34 -26.0219 1432.81 -16.0654L918.036 428.355C895.325 447.962 861.675 447.962 838.964 428.355L324.193 -16.0654C312.66 -26.0219 297.932 -31.5 282.696 -31.5H-12.6243C-30.1559 -31.5 -44.3681 -17.2878 -44.3681 0.243801C-44.3681 9.69931 -40.1528 18.6626 -32.8701 24.6932L625.69 570.028ZM-83.5 1273.81C-83.5 1291.31 -69.3125 1305.5 -51.8115 1305.5H250.652C265.905 1305.5 280.648 1300.01 292.186 1290.03L705.924 932.279C735.503 906.703 735.158 860.727 705.201 835.596L610.567 756.212C587.16 736.577 553.09 736.393 529.473 755.775L-71.9144 1249.32C-79.2486 1255.33 -83.5 1264.32 -83.5 1273.81Z" stroke="#8F00FF" stroke-opacity="0.1" stroke-width="3" shape-rendering="crispEdges"/>
</g>
<defs>
<filter id="filter0_d_0_100" x="-121" y="-65" width="1999" height="1412" filterUnits="userSpaceOnUse" color-interpolation-filters="sRGB">
<feFlood flood-opacity="0" result="BackgroundImageFix"/>
<feColorMatrix in="SourceAlpha" type="matrix" values="0 0 0 0 0 0 0 0 0 0 0 0 0 0 0 0 0 0 127 0" result="hardAlpha"/>
<feOffset dy="4"/>
<feGaussianBlur stdDeviation="18"/>
<feComposite in2="hardAlpha" operator="out"/>
<feColorMatrix type="matrix" values="0 0 0 0 0.444667 0 0 0 0 0.00833333 0 0 0 0 1 0 0 0 0.23 0"/>
<feBlend mode="normal" in2="BackgroundImageFix" result="effect1_dropShadow_0_100"/>
<feBlend mode="normal" in="SourceGraphic" in2="effect1_dropShadow_0_100" result="shape"/>
</filter>
</defs>
</svg>
